<mxfile host="app.diagrams.net" modified="2021-08-03T11:15:19.878Z" agent="5.0 (Windows NT 10.0; Win64; x64) AppleWebKit/537.36 (KHTML, like Gecko) Chrome/89.0.4389.90 Safari/537.36" etag="r74eOvxKb9mmGmVDi4qG" version="14.8.6" type="github">
  <diagram id="z3bsgk9yN2LEvl52_BR8" name="Page-1">
    <mxGraphModel dx="868" dy="425" grid="1" gridSize="10" guides="1" tooltips="1" connect="1" arrows="1" fold="1" page="1" pageScale="1" pageWidth="827" pageHeight="1169" math="0" shadow="0">
      <root>
        <mxCell id="0" />
        <mxCell id="1" parent="0" />
        <mxCell id="Z_u35qjtNShBp5WC_9uI-2" value="Node 1" style="rounded=1;whiteSpace=wrap;html=1;verticalAlign=top;align=center;" vertex="1" parent="1">
          <mxGeometry x="30" y="20" width="190" height="250" as="geometry" />
        </mxCell>
        <mxCell id="Z_u35qjtNShBp5WC_9uI-3" value="ConfStorage" style="rounded=0;whiteSpace=wrap;html=1;align=left;verticalAlign=top;" vertex="1" parent="1">
          <mxGeometry x="350" y="350" width="340" height="260" as="geometry" />
        </mxCell>
        <mxCell id="Z_u35qjtNShBp5WC_9uI-4" value="ConfigGenerator" style="rounded=1;whiteSpace=wrap;html=1;align=left;verticalAlign=top;" vertex="1" parent="1">
          <mxGeometry x="354" y="380" width="120" height="60" as="geometry" />
        </mxCell>
        <mxCell id="Z_u35qjtNShBp5WC_9uI-5" value="Storage (GitLab for now)" style="rounded=1;whiteSpace=wrap;html=1;align=left;verticalAlign=top;" vertex="1" parent="1">
          <mxGeometry x="520" y="380" width="120" height="60" as="geometry" />
        </mxCell>
        <mxCell id="Z_u35qjtNShBp5WC_9uI-6" value="" style="endArrow=classic;startArrow=classic;html=1;entryX=0;entryY=0.5;entryDx=0;entryDy=0;exitX=1;exitY=0.5;exitDx=0;exitDy=0;" edge="1" parent="1" source="Z_u35qjtNShBp5WC_9uI-4" target="Z_u35qjtNShBp5WC_9uI-5">
          <mxGeometry width="50" height="50" relative="1" as="geometry">
            <mxPoint x="480" y="410" as="sourcePoint" />
            <mxPoint x="440" y="350" as="targetPoint" />
          </mxGeometry>
        </mxCell>
        <mxCell id="Z_u35qjtNShBp5WC_9uI-9" value="раз в 30 минут запуск" style="edgeStyle=orthogonalEdgeStyle;rounded=0;orthogonalLoop=1;jettySize=auto;html=1;exitX=0.5;exitY=1;exitDx=0;exitDy=0;entryX=0.5;entryY=0;entryDx=0;entryDy=0;" edge="1" parent="1" source="Z_u35qjtNShBp5WC_9uI-7" target="Z_u35qjtNShBp5WC_9uI-8">
          <mxGeometry relative="1" as="geometry" />
        </mxCell>
        <mxCell id="Z_u35qjtNShBp5WC_9uI-7" value="telegraf" style="rounded=0;whiteSpace=wrap;html=1;align=left;verticalAlign=top;" vertex="1" parent="1">
          <mxGeometry x="40" y="50" width="120" height="30" as="geometry" />
        </mxCell>
        <mxCell id="Z_u35qjtNShBp5WC_9uI-10" style="edgeStyle=orthogonalEdgeStyle;rounded=0;orthogonalLoop=1;jettySize=auto;html=1;exitX=0.5;exitY=1;exitDx=0;exitDy=0;" edge="1" parent="1" source="Z_u35qjtNShBp5WC_9uI-8" target="Z_u35qjtNShBp5WC_9uI-4">
          <mxGeometry relative="1" as="geometry" />
        </mxCell>
        <mxCell id="Z_u35qjtNShBp5WC_9uI-8" value="telegraf_observ_helper" style="rounded=0;whiteSpace=wrap;html=1;align=left;verticalAlign=top;" vertex="1" parent="1">
          <mxGeometry x="40" y="150" width="140" height="30" as="geometry" />
        </mxCell>
        <mxCell id="Z_u35qjtNShBp5WC_9uI-11" value="Node 1" style="rounded=1;whiteSpace=wrap;html=1;verticalAlign=top;align=center;" vertex="1" parent="1">
          <mxGeometry x="50" y="680" width="190" height="250" as="geometry" />
        </mxCell>
        <mxCell id="Z_u35qjtNShBp5WC_9uI-16" style="edgeStyle=orthogonalEdgeStyle;rounded=0;orthogonalLoop=1;jettySize=auto;html=1;exitX=1;exitY=0.5;exitDx=0;exitDy=0;entryX=0.467;entryY=0.1;entryDx=0;entryDy=0;entryPerimeter=0;" edge="1" parent="1" source="Z_u35qjtNShBp5WC_9uI-13" target="Z_u35qjtNShBp5WC_9uI-15">
          <mxGeometry relative="1" as="geometry" />
        </mxCell>
        <mxCell id="Z_u35qjtNShBp5WC_9uI-17" value="Метрики&lt;br&gt;" style="edgeLabel;html=1;align=center;verticalAlign=middle;resizable=0;points=[];" vertex="1" connectable="0" parent="Z_u35qjtNShBp5WC_9uI-16">
          <mxGeometry x="-0.4447" y="1" relative="1" as="geometry">
            <mxPoint as="offset" />
          </mxGeometry>
        </mxCell>
        <mxCell id="Z_u35qjtNShBp5WC_9uI-13" value="telegraf" style="rounded=0;whiteSpace=wrap;html=1;align=left;verticalAlign=top;" vertex="1" parent="1">
          <mxGeometry x="60" y="710" width="120" height="30" as="geometry" />
        </mxCell>
        <mxCell id="Z_u35qjtNShBp5WC_9uI-15" value="VictoriaMetrics" style="ellipse;shape=cloud;whiteSpace=wrap;html=1;align=center;verticalAlign=middle;" vertex="1" parent="1">
          <mxGeometry x="580" y="765" width="120" height="80" as="geometry" />
        </mxCell>
        <mxCell id="Z_u35qjtNShBp5WC_9uI-19" style="edgeStyle=orthogonalEdgeStyle;rounded=0;orthogonalLoop=1;jettySize=auto;html=1;exitX=1;exitY=0.5;exitDx=0;exitDy=0;" edge="1" parent="1" source="Z_u35qjtNShBp5WC_9uI-18" target="Z_u35qjtNShBp5WC_9uI-15">
          <mxGeometry relative="1" as="geometry" />
        </mxCell>
        <mxCell id="Z_u35qjtNShBp5WC_9uI-21" style="edgeStyle=orthogonalEdgeStyle;rounded=0;orthogonalLoop=1;jettySize=auto;html=1;exitX=0.5;exitY=1;exitDx=0;exitDy=0;" edge="1" parent="1" source="Z_u35qjtNShBp5WC_9uI-18" target="Z_u35qjtNShBp5WC_9uI-20">
          <mxGeometry relative="1" as="geometry" />
        </mxCell>
        <mxCell id="Z_u35qjtNShBp5WC_9uI-18" value="Vmalert" style="rounded=1;whiteSpace=wrap;html=1;align=center;verticalAlign=middle;" vertex="1" parent="1">
          <mxGeometry x="360" y="775" width="120" height="60" as="geometry" />
        </mxCell>
        <mxCell id="Z_u35qjtNShBp5WC_9uI-23" style="edgeStyle=orthogonalEdgeStyle;rounded=0;orthogonalLoop=1;jettySize=auto;html=1;exitX=0.5;exitY=1;exitDx=0;exitDy=0;" edge="1" parent="1" source="Z_u35qjtNShBp5WC_9uI-20" target="Z_u35qjtNShBp5WC_9uI-22">
          <mxGeometry relative="1" as="geometry" />
        </mxCell>
        <mxCell id="Z_u35qjtNShBp5WC_9uI-24" value="Оповещение в голову" style="edgeLabel;html=1;align=center;verticalAlign=middle;resizable=0;points=[];" vertex="1" connectable="0" parent="Z_u35qjtNShBp5WC_9uI-23">
          <mxGeometry x="-0.1862" y="2" relative="1" as="geometry">
            <mxPoint as="offset" />
          </mxGeometry>
        </mxCell>
        <mxCell id="Z_u35qjtNShBp5WC_9uI-20" value="AlertManager" style="rounded=1;whiteSpace=wrap;html=1;align=center;verticalAlign=middle;" vertex="1" parent="1">
          <mxGeometry x="360" y="900" width="120" height="60" as="geometry" />
        </mxCell>
        <mxCell id="Z_u35qjtNShBp5WC_9uI-22" value="Actor" style="shape=umlActor;verticalLabelPosition=bottom;verticalAlign=top;html=1;outlineConnect=0;" vertex="1" parent="1">
          <mxGeometry x="370" y="1070" width="30" height="60" as="geometry" />
        </mxCell>
      </root>
    </mxGraphModel>
  </diagram>
</mxfile>
